<svg width="70" height="32" viewBox="0 0 70 32" fill="none" xmlns="http://www.w3.org/2000/svg">
<path d="M52.7693 0C48.9475 0 44.774 1.94 40.3652 5.7647C38.2773 7.57647 36.4674 9.51529 35.1091 11.0706C35.1115 11.0729 35.1139 11.0753 35.1163 11.0788C35.1198 11.0741 35.1222 11.0718 35.1222 11.0718C35.1222 11.0718 37.2648 13.3812 39.6225 15.8529C40.8917 14.36 42.7253 12.3224 44.8334 10.4941C48.7526 7.09294 51.3123 6.38 52.7693 6.38C58.2666 6.38 62.7384 10.6965 62.7384 16.0012C62.7384 21.2765 58.2642 25.5894 52.7621 25.6223C52.5114 25.6223 52.1894 25.5918 51.7924 25.5047C53.3955 26.1918 55.1187 26.6859 56.7598 26.6859C66.8358 26.6859 68.8049 20.1765 68.9392 19.7153C69.2375 18.5223 69.3955 17.28 69.3955 16.0023C69.3944 7.17764 61.9362 0 52.7693 0Z" fill="url(#paint0_linear_527_289)"/>
<path d="M17.5697 31.9996C21.3915 31.9996 25.565 30.0596 29.9738 26.2349C32.0617 24.4231 33.8716 22.4843 35.2299 20.929C35.2275 20.9267 35.2251 20.9243 35.2227 20.9208C35.2192 20.9255 35.2168 20.9278 35.2168 20.9278C35.2168 20.9278 33.0742 18.6184 30.7165 16.1467C29.4473 17.6396 27.6137 19.6772 25.5056 21.5055C21.5864 24.9067 19.0267 25.6196 17.5697 25.6196C12.0724 25.6196 7.60064 21.3031 7.60064 15.9984C7.60064 10.7231 12.0748 6.41019 17.5769 6.37725C17.8276 6.37725 18.1497 6.40784 18.5466 6.4949C16.9435 5.80784 15.2204 5.31372 13.5792 5.31372C3.5032 5.31372 1.53409 11.8231 1.39981 12.2843C1.10153 13.4773 0.943481 14.7196 0.943481 15.9973C0.94467 24.822 8.40278 31.9996 17.5697 31.9996Z" fill="url(#paint1_linear_527_289)"/>
<path d="M56.7404 26.5235C51.5818 26.3976 46.2199 22.3706 45.1254 21.3694C42.2995 18.7824 35.7778 11.7776 35.2657 11.2282C30.4849 5.92941 24.0072 0 17.5699 0H17.5616H17.5533C9.72795 0.0388235 3.1516 5.28471 1.40234 12.2871C1.53663 11.8259 4.10703 5.19294 13.5735 5.42353C18.7321 5.54941 24.1201 9.63059 25.2134 10.6318C28.0393 13.2188 34.5634 20.2247 35.0732 20.7741C39.8539 26.0718 46.3316 32 52.7689 32H52.7772H52.7856C60.6109 31.9612 67.1872 26.7153 68.9365 19.7129C68.8034 20.1741 66.2068 26.7541 56.7404 26.5235Z" fill="#29ABE2"/>
<defs>
<linearGradient id="paint0_linear_527_289" x1="44.115" y1="2.10995" x2="66.4837" y2="25.5074" gradientUnits="userSpaceOnUse">
<stop offset="0.21" stop-color="#F15A24"/>
<stop offset="0.6841" stop-color="#FBB03B"/>
</linearGradient>
<linearGradient id="paint1_linear_527_289" x1="26.224" y1="29.8897" x2="3.85525" y2="6.49219" gradientUnits="userSpaceOnUse">
<stop offset="0.21" stop-color="#ED1E79"/>
<stop offset="0.8929" stop-color="#522785"/>
</linearGradient>
</defs>
</svg>
