<svg width="41" height="19" viewBox="0 0 41 19" fill="none" xmlns="http://www.w3.org/2000/svg">
<path d="M30.7718 0C28.5027 0 26.0247 1.15187 23.4069 3.42279C22.1672 4.49853 21.0926 5.6497 20.2861 6.57316C20.2875 6.57456 20.289 6.57595 20.2904 6.57805C20.2925 6.57526 20.2939 6.57386 20.2939 6.57386C20.2939 6.57386 21.5661 7.94507 22.9659 9.41268C23.7195 8.52625 24.8082 7.3164 26.0599 6.23088C28.387 4.21143 29.9068 3.78812 30.7718 3.78812C34.0359 3.78812 36.691 6.35103 36.691 9.5007C36.691 12.6329 34.0345 15.1937 30.7676 15.2133C30.6187 15.2133 30.4275 15.1951 30.1919 15.1434C31.1437 15.5514 32.1668 15.8447 33.1412 15.8447C39.1239 15.8447 40.293 11.9798 40.3727 11.706C40.5498 10.9976 40.6437 10.26 40.6437 9.50139C40.643 4.26173 36.2147 0 30.7718 0Z" fill="url(#paint0_linear_120_89)"/>
<path d="M9.87184 18.9998C12.141 18.9998 14.619 17.8479 17.2367 15.577C18.4765 14.5012 19.5511 13.3501 20.3575 12.4266C20.3561 12.4252 20.3547 12.4238 20.3533 12.4217C20.3512 12.4245 20.3498 12.4259 20.3498 12.4259C20.3498 12.4259 19.0776 11.0547 17.6777 9.58709C16.9242 10.4735 15.8354 11.6834 14.5837 12.7689C12.2567 14.7883 10.7369 15.2116 9.87184 15.2116C6.6078 15.2116 3.95269 12.6487 3.95269 9.49907C3.95269 6.36687 6.60921 3.80606 9.87607 3.7865C10.025 3.7865 10.2162 3.80466 10.4518 3.85635C9.5 3.44841 8.4769 3.15503 7.50249 3.15503C1.51983 3.15503 0.350676 7.01999 0.270944 7.29382C0.0938426 8.00213 0 8.73977 0 9.49838C0.000705585 14.738 4.42896 18.9998 9.87184 18.9998Z" fill="url(#paint1_linear_120_89)"/>
<path d="M33.1294 15.7483C30.0665 15.6736 26.8829 13.2825 26.2331 12.6881C24.5552 11.152 20.6829 6.99298 20.3788 6.66676C17.5402 3.52059 13.6941 0 9.87194 0H9.867H9.86207C5.21579 0.0230515 1.31108 3.13779 0.272461 7.29544C0.352192 7.02162 1.87837 3.08331 7.49906 3.22022C10.562 3.29496 13.7611 5.71816 14.4103 6.31261C16.0881 7.84868 19.9618 12.0084 20.2645 12.3346C23.1031 15.4801 26.9492 19 30.7714 19H30.7763H30.7813C35.4275 18.9769 39.3322 15.8622 40.3709 11.7046C40.2918 11.9784 38.7501 15.8853 33.1294 15.7483Z" fill="#29ABE2"/>
<defs>
<linearGradient id="paint0_linear_120_89" x1="25.6334" y1="1.25278" x2="38.9148" y2="15.145" gradientUnits="userSpaceOnUse">
<stop offset="0.21" stop-color="#F15A24"/>
<stop offset="0.6841" stop-color="#FBB03B"/>
</linearGradient>
<linearGradient id="paint1_linear_120_89" x1="15.0103" y1="17.747" x2="1.72887" y2="3.85474" gradientUnits="userSpaceOnUse">
<stop offset="0.21" stop-color="#ED1E79"/>
<stop offset="0.8929" stop-color="#522785"/>
</linearGradient>
</defs>
</svg>
