<svg width="23" height="23" viewBox="0 0 23 23" fill="none" xmlns="http://www.w3.org/2000/svg">
<path d="M17.1974 4.63892C16.95 4.63892 16.7081 4.71229 16.5023 4.84977C16.2966 4.98725 16.1362 5.18265 16.0415 5.41126C15.9468 5.63988 15.9221 5.89144 15.9703 6.13414C16.0186 6.37684 16.1378 6.59977 16.3127 6.77474C16.4877 6.94972 16.7106 7.06888 16.9533 7.11715C17.196 7.16543 17.4476 7.14065 17.6762 7.04596C17.9048 6.95126 18.1002 6.7909 18.2377 6.58515C18.3752 6.3794 18.4486 6.13751 18.4486 5.89005C18.4486 5.55823 18.3168 5.24 18.0821 5.00537C17.8475 4.77073 17.5293 4.63892 17.1974 4.63892Z" fill="white"/>
<path d="M11.6346 6.24344C10.5949 6.24351 9.57868 6.55187 8.7143 7.12951C7.84992 7.70715 7.17624 8.52813 6.77844 9.48865C6.38064 10.4492 6.2766 11.5061 6.47947 12.5257C6.68234 13.5453 7.183 14.4819 7.91816 15.217C8.65331 15.9521 9.58994 16.4527 10.6096 16.6555C11.6292 16.8583 12.6861 16.7542 13.6466 16.3563C14.6071 15.9585 15.428 15.2847 16.0056 14.4203C16.5832 13.5559 16.8915 12.5396 16.8915 11.5C16.8899 10.1063 16.3355 8.77014 15.35 7.78468C14.3644 6.79923 13.0283 6.24495 11.6346 6.24344ZM11.6346 14.8665C10.9685 14.8666 10.3174 14.6693 9.76352 14.2993C9.20966 13.9294 8.77795 13.4035 8.52299 12.7882C8.26804 12.1728 8.20129 11.4957 8.33119 10.8425C8.4611 10.1892 8.78181 9.58915 9.25278 9.11818C9.72375 8.64721 10.3238 8.3265 10.9771 8.19659C11.6303 8.06669 12.3074 8.13344 12.9228 8.38839C13.5381 8.64335 14.064 9.07506 14.4339 9.62892C14.8039 10.1828 15.0012 10.8339 15.0011 11.5C15.0001 12.3925 14.6451 13.2482 14.0139 13.8793C13.3828 14.5105 12.5271 14.8655 11.6346 14.8665Z" fill="white"/>
<path d="M15.8071 22.1723H7.28624C5.58643 22.1703 3.95682 21.4941 2.75497 20.292C1.55313 19.09 0.877198 17.4602 0.875488 15.7604V7.23959C0.877098 5.53974 1.553 3.90996 2.75486 2.70788C3.95673 1.5058 5.58639 0.82961 7.28624 0.827698H15.8071C17.5071 0.829408 19.137 1.50549 20.3391 2.70759C21.5412 3.90968 22.2172 5.53958 22.219 7.23959V15.7604C22.2171 17.4604 21.541 19.0902 20.339 20.2923C19.1369 21.4944 17.507 22.1705 15.8071 22.1723ZM7.28624 2.8359C6.11871 2.83721 4.99938 3.30159 4.17381 4.12716C3.34824 4.95273 2.88386 6.07206 2.88255 7.23959V15.7604C2.88386 16.9279 3.34824 18.0473 4.17381 18.8728C4.99938 19.6984 6.11871 20.1628 7.28624 20.1641H15.8071C16.9746 20.1628 18.0939 19.6984 18.9195 18.8728C19.7451 18.0473 20.2094 16.9279 20.2107 15.7604V7.23959C20.2094 6.07206 19.7451 4.95273 18.9195 4.12716C18.0939 3.30159 16.9746 2.83721 15.8071 2.8359H7.28624Z" fill="white"/>
</svg>
