<svg width="28" height="21" viewBox="0 0 28 21" fill="none" xmlns="http://www.w3.org/2000/svg">
<path d="M23.7467 1.95555C23.3052 1.75409 22.8568 1.56606 22.4017 1.39146C21.9466 1.21686 21.4854 1.05737 21.0182 0.912987C20.5509 0.768439 20.0778 0.639084 19.5989 0.524923C19.1199 0.410761 18.6357 0.312549 18.1463 0.230286C18.0846 0.336305 18.0204 0.451893 17.958 0.572518C17.8955 0.693143 17.8321 0.819056 17.7701 0.945725C17.7082 1.07239 17.649 1.20007 17.5938 1.32346C17.5387 1.44686 17.4848 1.56824 17.4369 1.68106C16.9165 1.60568 16.3968 1.5491 15.8779 1.51133C15.359 1.47355 14.841 1.45467 14.3241 1.45467C13.8072 1.45467 13.2911 1.47355 12.7759 1.51133C12.2606 1.5491 11.7463 1.60568 11.2329 1.68106C11.1851 1.56824 11.1322 1.44761 11.0738 1.32346C11.0154 1.19931 10.9549 1.07164 10.8925 0.945725C10.83 0.819811 10.7666 0.693898 10.7036 0.572518C10.6406 0.451137 10.5784 0.336305 10.5208 0.230286C10.0279 0.312549 9.54101 0.410761 9.06019 0.524923C8.57937 0.639084 8.10543 0.768439 7.63837 0.912987C7.17098 1.05754 6.71056 1.21703 6.25711 1.39146C5.80365 1.56589 5.35767 1.75392 4.91915 1.95555C4.07659 3.1898 3.34294 4.49498 2.7265 5.85634C2.16559 7.09934 1.72041 8.39139 1.39661 9.71608C1.09184 10.9711 0.899355 12.2507 0.821434 13.5398C0.746436 14.804 0.770433 16.0721 0.893204 17.3326C1.48197 17.7607 2.06571 18.1465 2.64491 18.4955C3.22411 18.8445 3.79878 19.1563 4.36992 19.4363C4.94106 19.7164 5.50792 19.9652 6.07201 20.1845C6.63611 20.4038 7.19667 20.5985 7.75522 20.7698C7.89238 20.5851 8.02593 20.3969 8.15588 20.2052C8.28582 20.0134 8.41207 19.8187 8.53462 19.6209C8.65701 19.4232 8.77545 19.2225 8.88995 19.0191C9.00445 18.8156 9.11475 18.6094 9.22085 18.4006C9.01939 18.3252 8.81994 18.2455 8.62251 18.1616C8.42508 18.0776 8.23033 17.9895 8.03827 17.8972C7.84521 17.8048 7.65449 17.7079 7.46612 17.6063C7.27776 17.5047 7.09116 17.3998 6.90631 17.2915C6.95399 17.2579 7.00167 17.223 7.04935 17.1868C7.09703 17.1505 7.14437 17.1142 7.19138 17.0777C7.23839 17.041 7.28506 17.0038 7.3314 16.9662C7.37773 16.9286 7.4234 16.891 7.46839 16.8536C8.55998 17.3547 9.70135 17.7394 10.8736 18.0012C12.0127 18.2548 13.176 18.383 14.343 18.3837C15.5065 18.3835 16.6664 18.2553 17.8018 18.0014C18.9644 17.7404 20.0957 17.3556 21.1763 16.8536C21.224 16.8915 21.2712 16.9292 21.3178 16.9667C21.3645 17.0041 21.411 17.0413 21.4573 17.0782C21.5037 17.115 21.5502 17.1512 21.5969 17.1868C21.6435 17.2224 21.6907 17.2573 21.7384 17.2915C21.5537 17.401 21.3673 17.5062 21.1791 17.6071C20.9909 17.708 20.8004 17.8047 20.6077 17.8972C20.4151 17.9897 20.2203 18.0778 20.0232 18.1616C19.8261 18.2454 19.6266 18.325 19.4246 18.4006C19.5307 18.6092 19.641 18.8154 19.7555 19.0191C19.87 19.2227 19.9884 19.4233 20.1108 19.6209C20.2332 19.8187 20.3591 20.0133 20.4886 20.2049C20.618 20.3965 20.7516 20.5847 20.8892 20.7695C21.4473 20.5983 22.0086 20.4049 22.5734 20.1843C23.1383 19.9637 23.7067 19.7159 24.2783 19.4361C24.85 19.1563 25.4254 18.8443 26.0041 18.4953C26.5828 18.1462 27.165 17.7604 27.7507 17.3326C27.896 15.9258 27.9144 14.5087 27.8056 13.0986C27.7007 11.7593 27.4718 10.4326 27.1217 9.13562C26.7761 7.86117 26.3178 6.61998 25.7522 5.42672C25.1787 4.21834 24.5098 3.0576 23.7517 1.95555H23.7467ZM9.83329 14.2243C9.50565 14.2241 9.18214 14.151 8.88617 14.0105C8.59177 13.8699 8.32835 13.6721 8.1113 13.4285C7.88542 13.1757 7.70803 12.8835 7.58801 12.5665C7.46033 12.23 7.39521 11.873 7.39586 11.5131C7.39501 11.1536 7.45881 10.7969 7.58423 10.46C7.70191 10.1433 7.8772 9.85112 8.10123 9.59823C8.3172 9.35397 8.58035 9.15593 8.87484 9.01601C9.17426 8.87538 9.50099 8.80248 9.83178 8.80248C10.1626 8.80248 10.4893 8.87538 10.7887 9.01601C11.0852 9.15599 11.3506 9.35386 11.5694 9.59798C11.7958 9.85001 11.9727 10.1424 12.0909 10.46C12.2164 10.7967 12.277 11.1541 12.2697 11.5134C12.2705 11.8731 12.2061 12.23 12.0796 12.5668C11.9608 12.8836 11.7845 13.1759 11.5596 13.4288C11.343 13.6727 11.0797 13.8707 10.7852 14.011C10.4876 14.1516 10.1625 14.2244 9.83329 14.2243ZM18.8308 14.2243C18.5032 14.2241 18.1798 14.151 17.8839 14.0105C17.5894 13.8699 17.3258 13.672 17.1086 13.4285C16.8824 13.1758 16.7048 12.8836 16.5845 12.5665C16.4563 12.2298 16.391 11.8724 16.3916 11.5121C16.3908 11.1526 16.4547 10.7959 16.5802 10.459C16.6983 10.1426 16.874 9.85074 17.0982 9.59823C17.3144 9.35397 17.5777 9.15593 17.8723 9.01601C18.1718 8.87538 18.4985 8.80248 18.8293 8.80248C19.1601 8.80248 19.4868 8.87538 19.7862 9.01601C20.0827 9.15599 20.3481 9.35387 20.5669 9.59798C20.7933 9.85001 20.9702 10.1424 21.0884 10.46C21.2139 10.7967 21.2745 11.1541 21.2672 11.5134C21.2681 11.873 21.2043 12.2298 21.0789 12.5668C20.9612 12.8835 20.7859 13.1758 20.5619 13.4288C20.3459 13.673 20.0827 13.8711 19.7882 14.011C19.4888 14.1519 19.1618 14.2247 18.8308 14.2243Z" fill="white"/>
</svg>
