<svg width="26" height="21" viewBox="0 0 26 21" fill="none" xmlns="http://www.w3.org/2000/svg">
<path d="M25.6732 2.52318C24.8486 2.87717 23.9821 3.12427 23.0948 3.25845C23.5104 3.18816 24.1196 2.43839 24.3625 2.13463C24.7446 1.67362 25.0354 1.14407 25.2194 0.574281C25.2417 0.529652 25.2579 0.473587 25.213 0.440115C25.1912 0.430606 25.1674 0.426648 25.1437 0.428595C25.12 0.430542 25.0971 0.438333 25.0772 0.451272C24.1106 0.967678 23.0832 1.36123 22.0189 1.62279C21.9823 1.63396 21.9433 1.63466 21.9062 1.6248C21.8692 1.61494 21.8357 1.59492 21.8095 1.567C21.7273 1.46893 21.6375 1.37752 21.5409 1.29365C21.0998 0.912964 20.5998 0.606341 20.0606 0.385723C19.341 0.0947502 18.5651 -0.0298749 17.7906 0.0211583C17.0379 0.0711986 16.3039 0.278134 15.6359 0.628673C14.9657 0.978135 14.3743 1.46124 13.8981 2.04816C13.4041 2.65643 13.0497 3.36584 12.8602 4.12621C12.6978 4.8472 12.6789 5.5931 12.8044 6.32141C12.8203 6.44302 12.8092 6.46087 12.699 6.44302C8.50132 5.81933 5.0222 4.31672 2.19661 1.09728C2.0736 0.957814 2.00638 0.957814 1.90736 1.10844C0.670013 2.96111 1.26944 5.93787 2.81389 7.4006C3.02002 7.59585 3.23229 7.7911 3.45962 7.96962C2.75302 7.91558 2.06411 7.72219 1.43261 7.4006C1.311 7.32389 1.2488 7.36852 1.23736 7.50771C1.22985 7.70868 1.24105 7.90991 1.27083 8.10881C1.39462 9.05424 1.76711 9.94988 2.35027 10.7043C2.93343 11.4586 3.70636 12.0447 4.59013 12.4027C4.80609 12.4963 5.03185 12.5654 5.26319 12.6088C4.85707 12.6967 4.43979 12.7606 3.27468 12.6696C3.13076 12.6417 3.07497 12.7143 3.13076 12.8534C4.00521 15.2369 5.89219 15.9468 7.30638 16.3513C7.49661 16.3847 7.68517 16.3847 7.8754 16.428C7.86424 16.4455 7.85308 16.4455 7.84193 16.4614C7.3736 17.1777 5.7477 17.7083 4.99012 17.9738C3.60321 18.4687 2.1257 18.6578 0.658856 18.5283C0.425389 18.4932 0.377413 18.4963 0.313537 18.5283C0.249662 18.5668 0.305448 18.6226 0.38076 18.6834C0.676429 18.8787 0.977118 19.051 1.28227 19.219C2.2029 19.7089 3.17421 20.0969 4.17898 20.3763C9.38247 21.8133 15.2445 20.7584 19.1512 16.8754C22.2195 13.8269 23.2948 9.62313 23.2948 5.41348C23.2948 5.24891 23.49 5.1577 23.605 5.06984C24.3841 4.46709 25.0708 3.75344 25.6431 2.95162C25.7333 2.83567 25.7813 2.69239 25.779 2.5455V2.52318C25.779 2.45596 25.7773 2.47688 25.6735 2.52318" fill="white"/>
</svg>
