<svg width="576" height="145" viewBox="0 0 576 145" fill="none" xmlns="http://www.w3.org/2000/svg">
<g filter="url(#filter0_i_429_89)">
<rect x="0.26123" y="0.78418" width="574.951" height="143.524" rx="11.9603" fill="url(#paint0_linear_429_89)"/>
<rect x="0.26123" y="0.78418" width="574.951" height="143.524" rx="11.9603" fill="url(#paint1_linear_429_89)" fill-opacity="0.5"/>
</g>
<rect x="0.614738" y="1.13769" width="574.244" height="142.817" rx="11.6068" stroke="#00B2FF" stroke-width="0.707016"/>
<g filter="url(#filter1_i_429_89)">
<path d="M0.26123 12.7445C0.26123 6.13898 5.61606 0.78418 12.2216 0.78418H136.715V144.308H12.2216C5.61606 144.308 0.26123 138.954 0.26123 132.348V12.7445Z" fill="url(#paint2_linear_429_89)"/>
<path d="M0.26123 12.7445C0.26123 6.13898 5.61606 0.78418 12.2216 0.78418H136.715V144.308H12.2216C5.61606 144.308 0.26123 138.954 0.26123 132.348V12.7445Z" fill="url(#paint3_linear_429_89)" fill-opacity="0.5"/>
</g>
<path d="M12.2216 1.13769H136.362V143.955H12.2216C5.8113 143.955 0.614738 138.758 0.614738 132.348V12.7445C0.614738 6.33422 5.8113 1.13769 12.2216 1.13769Z" stroke="#00B2FF" stroke-width="0.707016"/>
<g filter="url(#filter2_i_429_89)">
<path d="M414.572 105.364C414.572 98.7586 419.927 93.4038 426.533 93.4038H575.065V132.349C575.065 138.954 569.71 144.309 563.104 144.309H414.572V105.364Z" fill="url(#paint4_linear_429_89)"/>
<path d="M414.572 105.364C414.572 98.7586 419.927 93.4038 426.533 93.4038H575.065V132.349C575.065 138.954 569.71 144.309 563.104 144.309H414.572V105.364Z" fill="url(#paint5_linear_429_89)" fill-opacity="0.5"/>
</g>
<path d="M426.533 93.7573H574.711V132.349C574.711 138.759 569.515 143.955 563.104 143.955H414.926V105.364C414.926 98.9539 420.122 93.7573 426.533 93.7573Z" stroke="#00B2FF" stroke-width="0.707016"/>
<defs>
<filter id="filter0_i_429_89" x="0.26123" y="0.78418" width="574.951" height="143.524" filterUnits="userSpaceOnUse" color-interpolation-filters="sRGB">
<feFlood flood-opacity="0" result="BackgroundImageFix"/>
<feBlend mode="normal" in="SourceGraphic" in2="BackgroundImageFix" result="shape"/>
<feColorMatrix in="SourceAlpha" type="matrix" values="0 0 0 0 0 0 0 0 0 0 0 0 0 0 0 0 0 0 127 0" result="hardAlpha"/>
<feOffset/>
<feGaussianBlur stdDeviation="14.1403"/>
<feComposite in2="hardAlpha" operator="arithmetic" k2="-1" k3="1"/>
<feColorMatrix type="matrix" values="0 0 0 0 0 0 0 0 0 0.58 0 0 0 0 1 0 0 0 0.57 0"/>
<feBlend mode="normal" in2="shape" result="effect1_innerShadow_429_89"/>
</filter>
<filter id="filter1_i_429_89" x="0.26123" y="0.78418" width="136.454" height="143.524" filterUnits="userSpaceOnUse" color-interpolation-filters="sRGB">
<feFlood flood-opacity="0" result="BackgroundImageFix"/>
<feBlend mode="normal" in="SourceGraphic" in2="BackgroundImageFix" result="shape"/>
<feColorMatrix in="SourceAlpha" type="matrix" values="0 0 0 0 0 0 0 0 0 0 0 0 0 0 0 0 0 0 127 0" result="hardAlpha"/>
<feOffset/>
<feGaussianBlur stdDeviation="14.1403"/>
<feComposite in2="hardAlpha" operator="arithmetic" k2="-1" k3="1"/>
<feColorMatrix type="matrix" values="0 0 0 0 0 0 0 0 0 0.58 0 0 0 0 1 0 0 0 0.57 0"/>
<feBlend mode="normal" in2="shape" result="effect1_innerShadow_429_89"/>
</filter>
<filter id="filter2_i_429_89" x="414.572" y="93.4038" width="160.493" height="50.9053" filterUnits="userSpaceOnUse" color-interpolation-filters="sRGB">
<feFlood flood-opacity="0" result="BackgroundImageFix"/>
<feBlend mode="normal" in="SourceGraphic" in2="BackgroundImageFix" result="shape"/>
<feColorMatrix in="SourceAlpha" type="matrix" values="0 0 0 0 0 0 0 0 0 0 0 0 0 0 0 0 0 0 127 0" result="hardAlpha"/>
<feOffset/>
<feGaussianBlur stdDeviation="14.1403"/>
<feComposite in2="hardAlpha" operator="arithmetic" k2="-1" k3="1"/>
<feColorMatrix type="matrix" values="0 0 0 0 0 0 0 0 0 0.58 0 0 0 0 1 0 0 0 0.57 0"/>
<feBlend mode="normal" in2="shape" result="effect1_innerShadow_429_89"/>
</filter>
<linearGradient id="paint0_linear_429_89" x1="24.6533" y1="81.0304" x2="551.733" y2="83.505" gradientUnits="userSpaceOnUse">
<stop stop-color="#133D62"/>
<stop offset="0.237052" stop-color="#123144"/>
<stop offset="0.5903" stop-color="#033B5E"/>
<stop offset="1" stop-color="#0F4769"/>
</linearGradient>
<linearGradient id="paint1_linear_429_89" x1="287.737" y1="0.78418" x2="287.737" y2="144.308" gradientUnits="userSpaceOnUse">
<stop stop-color="#124EEA"/>
<stop offset="1" stop-color="#020E2D" stop-opacity="0.87"/>
</linearGradient>
<linearGradient id="paint2_linear_429_89" x1="6.05023" y1="81.0304" x2="131.146" y2="81.1698" gradientUnits="userSpaceOnUse">
<stop stop-color="#133D62"/>
<stop offset="0.237052" stop-color="#123144"/>
<stop offset="0.5903" stop-color="#033B5E"/>
<stop offset="1" stop-color="#0F4769"/>
</linearGradient>
<linearGradient id="paint3_linear_429_89" x1="68.4882" y1="0.78418" x2="68.4882" y2="144.308" gradientUnits="userSpaceOnUse">
<stop stop-color="#124EEA"/>
<stop offset="1" stop-color="#020E2D" stop-opacity="0.87"/>
</linearGradient>
<linearGradient id="paint4_linear_429_89" x1="394.3" y1="121.866" x2="567.357" y2="122.618" gradientUnits="userSpaceOnUse">
<stop stop-color="#133D62"/>
<stop offset="0.237052" stop-color="#123144"/>
<stop offset="0.5903" stop-color="#033B5E"/>
<stop offset="1" stop-color="#0F4769"/>
</linearGradient>
<linearGradient id="paint5_linear_429_89" x1="480.678" y1="93.4038" x2="480.678" y2="144.309" gradientUnits="userSpaceOnUse">
<stop stop-color="#124EEA"/>
<stop offset="1" stop-color="#020E2D" stop-opacity="0.87"/>
</linearGradient>
</defs>
</svg>
