<svg width="26" height="25" viewBox="0 0 26 25" fill="none" xmlns="http://www.w3.org/2000/svg">
<path d="M15.4049 24.8234C15.4049 24.8234 14.5315 25 13.1579 25C11.7843 25 10.5263 24.8234 10.5263 24.8234C9.55261 24.5159 9.88745 24.6196 9.56721 24.5159C5.87486 23.3204 2.72911 21.358 1.15132 17.7022C0.822375 16.7154 0.822375 16.7154 0.493391 15.5605C-0.164467 12.4391 -0.16446 12.1101 0.493391 9.38558C0.822338 8.16278 1.15129 7.56579 2.0722 6.25L2.18453 6.88013C2.27451 7.23696 2.325 7.54553 2.30263 7.89474C2.0722 9.38558 2.01883 11.0071 2.0722 12.5259C2.19165 15.9143 3.8218 18.5545 6.55548 20.5043C8.59075 21.9561 10.8357 22.6786 13.3224 22.6365C16.5832 22.581 19.1021 20.7422 20.9177 18.2861C24.542 13.3829 22.9144 6.66816 17.5893 3.71387C15.3208 2.4553 12.8468 2.23672 10.4867 2.86296C7.54516 3.64372 5.87842 5.92298 5.47126 8.92505C4.79368 13.9233 8.52467 18.5707 14.264 17.1154C16.4736 16.5553 17.7845 14.2704 17.4506 11.7711C17.1863 9.79172 15.3635 8.20376 13.2474 8.10871C11.8363 8.04517 11.576 8.27289 11.5659 9.67278C11.5527 11.5586 11.5725 13.4449 11.5593 15.3308C11.5562 15.7816 11.4785 16.2325 11.4373 16.663C9.43607 16.7286 8.23189 15.6617 8.21206 13.9344C8.20291 13.1628 8.23595 12.3902 8.2024 11.6201C8.13785 10.1257 8.03466 8.63278 7.95994 7.13835C7.93097 6.55938 8.01891 6.02515 8.61515 5.71864C10.6118 4.69186 12.7172 4.06613 14.9365 4.66695C18.886 5.73643 21.513 9.7968 20.8191 13.7169C20.0252 18.2037 15.822 21.2129 11.3636 20.2542C8.02704 19.537 5.4001 17.7895 3.85128 14.5998C2.99935 12.8451 2.65167 11.0269 2.8184 9.11465C3.17726 4.99074 6.0365 1.09405 10.3739 0.268044C13.9371 -0.410548 17.3672 0.166382 20.3896 2.37651C22.8864 4.20236 24.361 6.68799 25.1398 9.63872C26.4543 14.6176 23.9834 20.3391 19.7298 22.8868C17.6809 24.1071 17.7019 24.1071 15.4049 24.8234Z" fill="white"/>
</svg>
